# xmcd CD database file
#
# Track frame offsets:
#	150
#	25415
#	46970
#	67230
#	97044
#	116743
#	131201
#	146576
#	162446
#	182948
#	211783
#
# Disc length: 2990 seconds
#
# Revision: 0
# Processed by: cddbd v1.5.2PL0 Copyright (c) Steve Scherf et al.
# Submitted via: CDex 1.51
#
DISCID=ac0bac0b
DTITLE=Oberg - Blues As Blues Can Get
DYEAR=2009
DGENRE=Blues
TTITLE0=Blues As Blues Can Get
TTITLE1=Wishing Well
TTITLE2=What You Got
TTITLE3=Head Up High
TTITLE4=Wanna Run
TTITLE5=If You Don't Know
TTITLE6=Life Goes On
TTITLE7=Black Spider
TTITLE8=Six String On A Wing
TTITLE9=I Want You
TTITLE10=Last Station
EXTD=YEAR: 2009
EXTT0=
EXTT1=
EXTT2=
EXTT3=
EXTT4=
EXTT5=
EXTT6=
EXTT7=
EXTT8=
EXTT9=
EXTT10=
PLAYORDER=
